<svg xmlns="http://www.w3.org/2000/svg" xmlns:xlink="http://www.w3.org/1999/xlink" width="500" zoomAndPan="magnify" viewBox="0 0 375 374.999991" height="500" preserveAspectRatio="xMidYMid meet" version="1.2"><defs><clipPath id="73dd23c4d9"><path d="M 187.5 0 C 83.945312 0 0 83.945312 0 187.5 C 0 291.054688 83.945312 375 187.5 375 C 291.054688 375 375 291.054688 375 187.5 C 375 83.945312 291.054688 0 187.5 0 Z M 187.5 0 "/></clipPath><clipPath id="13f55e51bc"><path d="M 177.503906 27.171875 L 199.296875 27.171875 L 199.296875 125.679688 L 177.503906 125.679688 Z M 177.503906 27.171875 "/></clipPath><clipPath id="abe5ae646f"><path d="M 38.421875 180.335938 L 136.925781 180.335938 L 136.925781 202.128906 L 38.421875 202.128906 Z M 38.421875 180.335938 "/></clipPath><clipPath id="c0fed33667"><path d="M 177.503906 249.320312 L 199.296875 249.320312 L 199.296875 347.828125 L 177.503906 347.828125 Z M 177.503906 249.320312 "/></clipPath><clipPath id="2b6e49cb78"><path d="M 238.109375 180.335938 L 336.613281 180.335938 L 336.613281 202.128906 L 238.109375 202.128906 Z M 238.109375 180.335938 "/></clipPath><clipPath id="bc5126f809"><path d="M 94.789062 88.269531 L 123.175781 88.269531 L 123.175781 116.65625 L 94.789062 116.65625 Z M 94.789062 88.269531 "/></clipPath><clipPath id="be21a341f4"><path d="M 108.980469 88.269531 C 101.144531 88.269531 94.789062 94.625 94.789062 102.464844 C 94.789062 110.300781 101.144531 116.65625 108.980469 116.65625 C 116.820312 116.65625 123.175781 110.300781 123.175781 102.464844 C 123.175781 94.625 116.820312 88.269531 108.980469 88.269531 Z M 108.980469 88.269531 "/></clipPath><clipPath id="f017ffee24"><path d="M 246.5 88.269531 L 274.886719 88.269531 L 274.886719 116.65625 L 246.5 116.65625 Z M 246.5 88.269531 "/></clipPath><clipPath id="74da2f269b"><path d="M 260.695312 88.269531 C 252.855469 88.269531 246.5 94.625 246.5 102.464844 C 246.5 110.300781 252.855469 116.65625 260.695312 116.65625 C 268.535156 116.65625 274.886719 110.300781 274.886719 102.464844 C 274.886719 94.625 268.535156 88.269531 260.695312 88.269531 Z M 260.695312 88.269531 "/></clipPath><clipPath id="ee12348985"><path d="M 246.5 257.734375 L 274.886719 257.734375 L 274.886719 286.117188 L 246.5 286.117188 Z M 246.5 257.734375 "/></clipPath><clipPath id="09245788d7"><path d="M 260.695312 257.734375 C 252.855469 257.734375 246.5 264.085938 246.5 271.925781 C 246.5 279.765625 252.855469 286.117188 260.695312 286.117188 C 268.535156 286.117188 274.886719 279.765625 274.886719 271.925781 C 274.886719 264.085938 268.535156 257.734375 260.695312 257.734375 Z M 260.695312 257.734375 "/></clipPath><clipPath id="5b17baa928"><path d="M 102.234375 257.734375 L 130.621094 257.734375 L 130.621094 286.117188 L 102.234375 286.117188 Z M 102.234375 257.734375 "/></clipPath><clipPath id="7d7c7d6fc5"><path d="M 116.425781 257.734375 C 108.585938 257.734375 102.234375 264.085938 102.234375 271.925781 C 102.234375 279.765625 108.585938 286.117188 116.425781 286.117188 C 124.265625 286.117188 130.621094 279.765625 130.621094 271.925781 C 130.621094 264.085938 124.265625 257.734375 116.425781 257.734375 Z M 116.425781 257.734375 "/></clipPath></defs><g id="2cfb069ebd"><g clip-rule="nonzero" clip-path="url(#73dd23c4d9)"><rect x="0" width="375" y="0" height="374.999991" style="fill:#1b17ff;fill-opacity:1;stroke:none;"/></g><g clip-rule="nonzero" clip-path="url(#13f55e51bc)"><path style=" stroke:none;fill-rule:nonzero;fill:#f4f4f4;fill-opacity:1;" d="M 177.503906 27.171875 L 199.296875 27.171875 L 199.296875 125.667969 L 177.503906 125.667969 Z M 177.503906 27.171875 "/></g><g clip-rule="nonzero" clip-path="url(#abe5ae646f)"><path style=" stroke:none;fill-rule:nonzero;fill:#f4f4f4;fill-opacity:1;" d="M 38.421875 202.128906 L 38.421875 180.335938 L 136.914062 180.335938 L 136.914062 202.128906 Z M 38.421875 202.128906 "/></g><g clip-rule="nonzero" clip-path="url(#c0fed33667)"><path style=" stroke:none;fill-rule:nonzero;fill:#f4f4f4;fill-opacity:1;" d="M 177.503906 249.320312 L 199.296875 249.320312 L 199.296875 347.816406 L 177.503906 347.816406 Z M 177.503906 249.320312 "/></g><g clip-rule="nonzero" clip-path="url(#2b6e49cb78)"><path style=" stroke:none;fill-rule:nonzero;fill:#f4f4f4;fill-opacity:1;" d="M 238.109375 202.128906 L 238.109375 180.335938 L 336.601562 180.335938 L 336.601562 202.128906 Z M 238.109375 202.128906 "/></g><g clip-rule="nonzero" clip-path="url(#bc5126f809)"><g clip-rule="nonzero" clip-path="url(#be21a341f4)"><path style=" stroke:none;fill-rule:nonzero;fill:#f4f4f4;fill-opacity:1;" d="M 94.789062 88.269531 L 123.175781 88.269531 L 123.175781 116.65625 L 94.789062 116.65625 Z M 94.789062 88.269531 "/></g></g><g clip-rule="nonzero" clip-path="url(#f017ffee24)"><g clip-rule="nonzero" clip-path="url(#74da2f269b)"><path style=" stroke:none;fill-rule:nonzero;fill:#f4f4f4;fill-opacity:1;" d="M 246.5 88.269531 L 274.886719 88.269531 L 274.886719 116.65625 L 246.5 116.65625 Z M 246.5 88.269531 "/></g></g><g clip-rule="nonzero" clip-path="url(#ee12348985)"><g clip-rule="nonzero" clip-path="url(#09245788d7)"><path style=" stroke:none;fill-rule:nonzero;fill:#f4f4f4;fill-opacity:1;" d="M 246.5 257.734375 L 274.886719 257.734375 L 274.886719 286.117188 L 246.5 286.117188 Z M 246.5 257.734375 "/></g></g><g clip-rule="nonzero" clip-path="url(#5b17baa928)"><g clip-rule="nonzero" clip-path="url(#7d7c7d6fc5)"><path style=" stroke:none;fill-rule:nonzero;fill:#f4f4f4;fill-opacity:1;" d="M 102.234375 257.734375 L 130.621094 257.734375 L 130.621094 286.117188 L 102.234375 286.117188 Z M 102.234375 257.734375 "/></g></g></g></svg>